<svg width="63" height="73" viewBox="0 0 63 73" fill="none" xmlns="http://www.w3.org/2000/svg">
<path d="M34.6 7.00027C36.9 2.40027 42.1 1.80027 47.5 4.30027C50.6 5.80027 59.6 10.8003 59 15.1003C58.6 17.4003 55.9 18.2003 54.2 18.7003C52.1 19.5003 50 20.6003 48.1 21.8003C42.3 25.4003 37.2 30.8003 33.7 36.8003C29.1 38.9003 27 36.8003 29.3 32.2003C30.8 24.7003 32.4 17.4003 34.1 9.90027C33.8 8.90027 34 7.80027 34.6 7.00027Z" fill="#CB245A"/>
<path d="M30.2 38.5001C29 38.5001 28.3 38.1001 27.9 37.7001C27.3 37.1001 26.4 35.4001 28.1 31.9001C29.4 25.2001 31 18.3001 32.3 11.7001L32.7 9.80015C32.9 8.60015 33.3 7.50015 33.9 6.50015C36.4 1.70015 41.8 0.500146 47.9 3.40015C49.8 4.40015 52.9 6.10015 55.2 7.80015C58.7 10.5001 60.2 13.0001 59.8 15.1001C59.4 17.6001 56.9 18.6001 55 19.1001C54.8 19.1001 54.6 19.3001 54.4 19.3001C52.3 20.1001 50.4 21.2001 48.3 22.4001C42.7 26.0001 37.7 31.2001 34 37.2001L33.8 37.4002L33.6 37.6001C32.1 38.3001 30.9 38.5001 30.2 38.5001ZM41.5 3.70015C38.8 3.70015 36.5 5.00015 35.4 7.30015C35 8.10015 34.6 9.00015 34.4 10.2001L34 12.2001C32.7 18.9001 31.1 25.6001 29.8 32.4001V32.6001C28.8 34.7001 28.8 36.1002 29.4 36.4002C29.8 36.8002 30.9 37.0001 33 36.0001C36.8 29.9001 42 24.5001 47.6 21.0001C49.7 19.7001 51.8 18.7001 53.9 17.7001C54.1 17.7001 54.3 17.5001 54.5 17.5001C56 16.9001 58 16.3001 58.1 14.8001C58.7 11.5001 51.8 7.10015 47.2 4.80015C45 4.10015 43.2 3.70015 41.5 3.70015Z" fill="white"/>
<path d="M29.3999 42.7001C31.6999 47.1001 34.1999 46.7001 34.5999 41.7001C33.9999 37.1001 33.5999 32.3001 33.3999 27.7001C32.9999 20.8001 33.5999 13.7001 35.0999 7.00007C37.1999 -1.99993 24.6999 3.90007 21.4999 5.50007C17.8999 7.40007 14.1999 9.50007 13.5999 14.0001C12.7999 19.6001 19.1999 26.7001 22.0999 31.3001C24.5999 34.8001 26.8999 38.9001 29.3999 42.7001Z" fill="#ED2A5D"/>
<path d="M32.5 46.8C31.5 46.8 30.2 46 28.7 43.3L21.4 31.6C20.8 30.6 20.1 29.5 19.1 28.3C16 23.7 12.2 18.3 13 13.5C13.6 8.70003 17.4 6.40003 21.3 4.50003C25.2 2.60003 32.2 -0.499969 35.1 1.80003C36.4 2.80003 36.6 4.50003 36.1 7.00003C34.6 13.3 34 20.3 34.4 27.6C34.6 32.6 35 37.2 35.6 41.6C35.2 45.2 34.1 46.2 33.1 46.4C32.9 46.6 32.7 46.8 32.5 46.8ZM32.1 2.80003C29.8 2.80003 26.3 4.00003 22.1 6.10003C18.5 7.80003 15.2 9.90003 14.6 13.8C14 17.8 17.7 23 20.6 27.1C21.4 28.3 22.3 29.4 22.9 30.6L30.2 42.5C31.4 44.8 32.3 45.2 32.5 45.2C32.9 45.2 33.5 44.4 33.7 41.9C33.1 37.5 32.9 32.9 32.5 27.9C32.1 20.4 32.7 13.5 34.2 7.00003C34.6 5.30003 34.4 4.10003 33.8 3.70003C33.4 3.00003 32.9 2.80003 32.1 2.80003Z" fill="white"/>
<path d="M6.4001 17.3999C7.2001 15.8999 7.9001 14.4999 8.7001 13.5999C12.7001 9.19995 15.0001 15.0999 16.6001 17.3999C19.3001 21.3999 21.6001 25.6999 24.7001 29.4999C27.8001 33.2999 31.0001 37.1999 33.9001 41.1999C35.2001 43.0999 37.2001 47.4999 32.0001 46.9999C24.9001 44.4999 17.6001 42.1999 10.5001 39.4999C8.0001 38.4999 5.5001 36.9999 4.0001 34.4999C2.8001 32.5999 2.5001 30.0999 2.8001 27.7999C3.3001 24.0999 4.6001 20.3999 6.4001 17.3999Z" fill="#4D2E90"/>
<path d="M33.1001 47.9001C32.7001 47.9001 32.3001 47.9001 31.9001 47.9001H31.7001C29.8001 47.3001 27.9001 46.6 25.9001 46C20.7001 44.3 15.3001 42.5001 10.1001 40.4001C6.80006 39.1001 4.50006 37.3001 3.20006 35.2001C1.70006 32.7001 1.70006 29.8001 1.90006 27.9001C2.30006 24.6001 3.40006 21.2001 5.40006 17.1001C6.20006 15.4001 6.90006 14.0001 7.70006 12.9001C9.00006 11.6001 10.4001 11.0001 11.5001 11.2001C13.8001 11.6001 15.1001 14.1001 16.3001 16.0001C16.5001 16.4001 16.9001 16.8001 17.1001 17.2001C17.9001 18.4001 18.4001 19.3001 19.2001 20.5001C21.1001 23.4001 23.0001 26.5 25.2001 29.3C26.2001 30.5 27.1001 31.8001 28.3001 32.9001C30.4001 35.6001 32.5001 38.3 34.6001 41C35.6001 42.3 36.9001 45 35.9001 46.8C35.4001 47.3 34.4001 47.9001 33.1001 47.9001ZM32.3001 46C33.1001 46 34.2001 46.2 34.4001 45.6C34.8001 44.8 34.2001 42.9 33.2001 41.8C31.3001 39.1 29.0001 36.4001 26.9001 33.7001C25.9001 32.5001 24.8001 31.2 23.8001 30.1C21.5001 27.2 19.6001 24.1 17.7001 21.3C17.1001 20.3 16.4001 19.2001 15.6001 18.2001C15.4001 17.8001 15.0001 17.4001 14.8001 16.9001C14.2001 15.2001 12.9001 13.1001 11.5001 12.9001C10.9001 12.7001 10.0001 13.3001 9.20006 14.1001C8.40006 15.3001 7.70006 16.6001 7.10006 17.9001C5.20006 21.7001 4.00006 25 3.80006 28.1C3.60006 29.8 3.60006 32.3001 5.00006 34.2001C6.20006 36.1001 8.10006 37.7 11.0001 38.8C16.2001 40.9 21.4001 42.6001 26.6001 44.4001C28.5001 44.8001 30.4001 45.4 32.3001 46Z" fill="white"/>
<path d="M2.09997 44.1C1.29997 40.5 0.599966 35.5 5.19997 35.3C8.79997 36.6 11.9 39.3 15.6 40.5C20.2 42 25.2 43 30.2 44C32.9 44.4 36 44.6 38.7 45.3C42.9 46.5 44.1 49.3001 39.9 51.3001C34.5 53.8001 28.4 55.5 22.8 57.6C20.5 58.6 18 59.3 15.5 59.5C12.4 59.7 9.69997 58.3001 7.59997 55.9001C4.39997 52.5001 2.89997 48.1 2.09997 44.1Z" fill="#69459A"/>
<path d="M14.6001 60.2C11.5001 60.2 8.60007 58.9 6.50007 56.4C4.00007 53.5 2.30007 49.7 1.10007 44.3C0.600069 41.8 6.91414e-05 38.1 1.80007 36C2.60007 35 3.70007 34.5 5.30007 34.5H5.50007H5.70007C7.40007 35.3 9.20007 36.2 10.7001 37C12.4001 38 14.2001 39.1 16.1001 39.7C20.7001 41.2 25.7001 42.2 30.5001 43.2C31.5001 43.4 32.6001 43.6 33.8001 43.6C35.5001 43.8 37.4001 44 39.0001 44.4C41.7001 45.2 43.2001 46.5 43.4001 48C43.4001 48.8 43.2001 50.5 40.1001 51.8C36.5001 53.5 32.4001 54.9 28.6001 56.2C26.7001 56.8 24.8001 57.5 22.8001 58.1C20.3001 59.1 17.8001 59.8 15.1001 60C15.0001 60.2 14.8001 60.2 14.6001 60.2ZM5.00007 36.2C4.20007 36.2 3.50007 36.6 3.10007 37.2C2.10007 38.4 2.10007 40.7 2.90007 44.1C4.10007 48.9 5.60007 52.7 7.90007 55.4C9.80007 57.7 12.3001 58.9 15.0001 58.7C17.5001 58.5 19.8001 57.7 22.1001 57C24.0001 56.2 25.9001 55.7 27.9001 55.1C31.7001 53.8 35.6001 52.4 39.2001 50.9C40.5001 50.3 41.5001 49.4 41.3001 48.8C41.3001 48 40.1001 47.1 38.0001 46.5C36.5001 46.1 34.7001 45.9 33.0001 45.7C31.8001 45.5 30.7001 45.5 29.7001 45.3C24.9001 44.5 19.9001 43.4 15.1001 41.8C13.0001 41 11.3001 40.1 9.30007 38.9C8.10007 37.7 6.60007 36.8 5.00007 36.2Z" fill="white"/>
<path d="M16.2002 66.7C14.5002 65.7 12.4002 64.8 11.8002 62.7C11.4002 60.4 13.1002 59.4001 14.7002 58.9001C18.9002 57.2001 23.0002 55.1001 27.0002 52.8001C32.8002 49.2001 37.6002 43.8 44.7002 42.8L36.2002 63.4001C32.9002 71.1001 22.9002 70 16.2002 66.7Z" fill="#7260A9"/>
<path d="M26.1001 70.0001C22.5001 70.0001 18.6001 68.8001 15.7001 67.3001C14.0001 66.3001 11.7001 65.2001 10.9001 62.9001C10.3001 59.6001 13.2001 58.5001 14.4001 58.1001C18.4001 56.6001 22.5001 54.5001 26.5001 52.0001C28.2001 51.0001 30.0001 49.7001 31.5001 48.5001C35.3001 45.6001 39.4001 42.5001 44.6001 41.8001L46.1001 41.6001L36.9001 63.5001C35.7001 66.4001 33.8001 68.3001 30.9001 69.3001C29.4001 69.8001 27.9001 70.0001 26.1001 70.0001ZM16.7001 66.0001C21.5001 68.5001 26.9001 69.1001 30.5001 67.7001C32.8001 66.9001 34.5001 65.2001 35.5001 62.9001L43.4001 43.7001C39.4001 44.7001 36.1001 47.2001 32.6001 49.8001C30.9001 51.0001 29.3001 52.3001 27.4001 53.4001C23.4001 55.9001 19.1001 58.0001 15.1001 59.5001C13.2001 60.3001 12.4001 61.0001 12.8001 62.4001C13.3001 64.0001 15.2001 65.2001 16.7001 66.0001Z" fill="white"/>
<path d="M52.8 54.1001C54.1 57.6001 53.6 61.4001 51.5 64.3001C48.4 68.3001 41.3 70.6001 36.5 71.2001C35.3 71.4001 34.2 71.4001 33.2 71.0001C30.9 70.2001 30.3 67.9001 31.5 65.8001C33.4 62.7001 35.7 60.0001 37.1 56.6001C38.4 53.5001 39 50.5001 39.8 47.2001C40.4 44.9001 41.5 40.7001 43.8 39.5001C46.5 38.2001 48.2 41.2001 49 43.3001L52.8 54.1001Z" fill="#126A9D"/>
<path d="M35 72.1001C34.2 72.1001 33.7 72.1001 32.9 71.7001C31.6 71.3001 30.8 70.4001 30.2 69.2001C29.8 68.0001 29.8 66.5001 30.6 65.4001C31.4 64.2001 32.1 63.1001 32.9 61.9001C34.2 60.0001 35.4 58.3001 36.2 56.3001C37.2 54.2001 37.7 51.7001 38.3 49.4001C38.5 48.6001 38.7 47.9001 38.9 47.1001L39.1 46.7001C39.9 44.0001 40.8 40.0001 43.5 38.8001C44.5 38.4001 45.4 38.2001 46.4 38.6001C48.1 39.4001 49.3 41.5001 49.9 43.0001C53.5 52.8001 53.9 53.6001 53.9 53.8001C55.2 57.4001 54.7 61.7001 52.4 64.7001C49.3 68.9001 42 71.2001 36.8 72.0001C36.1 71.9001 35.6 72.1001 35 72.1001ZM45 40.0001C44.8 40.0001 44.4 40.0001 44.2 40.2001C42.3 41.2001 41.3 44.8001 40.7 47.1001L40.5 47.5001C40.3 48.3001 40.1 49.0001 39.9 49.8001C39.3 52.1001 38.7 54.6001 37.8 56.9001C36.8 59.0001 35.5 60.9001 34.3 62.9001C33.5 64.1001 32.8 65.0001 32.2 66.2001C31.8 67.0001 31.6 67.9001 31.8 68.7001C32 69.5001 32.6 69.9001 33.3 70.2001C34.3 70.6001 35.4 70.4001 36.2 70.4001C41.6 69.6001 48.1 67.3001 50.6 63.9001C52.5 61.2001 53.1 57.8001 51.9 54.7001L47.9 43.9001C47.1 42.0001 46.4 40.8001 45.4 40.4001C45.4 40.0001 45.2 40.0001 45 40.0001Z" fill="white"/>
<path d="M49.0001 56.4C52.6001 63.9 60.1001 55.1 61.1001 48.7C62.1001 42.4 59.4001 39.1 53.8001 38.7L42.1001 41C36.5001 40.6 38.3001 43.0999 41.9001 47.2999C41.7001 47.0999 45.9001 50.2 49.0001 56.4Z" fill="#1D855D"/>
<path d="M52.5 60C51.2 60 49.4 59.2 48.1 56.5C45.2 50.5 41.2 47.7 41.2 47.7C38.7 44.8 37.2 42.7 37.9 41.2C38.5 39.9 40.4 39.9 42.1 40L53.8 37.7H54C57.1 37.9 59.4 38.9999 60.7 40.7999C62.2 42.6999 62.6 45.4 62 48.7C61.6 51 60.5 53.7 58.9 55.8C57.2 58.3 55.3 59.6 53.3 60C53 60 52.8 60 52.5 60ZM42.3 46.5999C43.1 47.1999 46.9 50.1 49.8 56C50.6 57.7 51.7 58.5 53.1 58.3C56 57.9 59.6 52.7 60.4 48.5C60.8 45.6 60.6 43.3 59.2 42C58 40.7 56.3 39.9 53.8 39.5L42.1 41.7999H41.9C39.6 41.5999 39.2 42 39.2 42C39.2 42.3 39.6 43.2999 42.3 46.5999Z" fill="white"/>
<path d="M37.3 50C37.1 50 36.7 50 36.3 49.8C35.1 49.6 34.4 48.8 34.2 48.1C32.5 48.7 30.6 48.5 29 47.3C27.7 46.3 27.5 45.2 27.3 44.6C27.3 44 27.3 43.4 27.7 43.1C25.2 41.9 23.5 39.6 23.3 37.1C23.1 35.6 23.7 34.2 24.6 33.5C25.2 33.1 25.8 32.9 26.5 32.9C25.9 31.7 25.7 30.6 25.9 29.4C26.1 27.5 27.2 25.8 29 24.4C31.3 22.7 33.8 22.1 35.7 22.7C36.5 22.9 37 23.3 37.6 23.9C38.6 23.1 39.7 22.7 41.1 22.6C42.8 22.4 45.1 23 47.4 23.9C48.6 24.5 51.4 26 52.2 27.9C52.6 28.7 52.8 30.2 50.9 31.4C47.1 34.1 44 38.9 43.6 39.7C43 41.2 42.4 42.2 41.7 42.8C41.7 43 41.7 43.4 41.7 43.6L41.5 45.5C41.3 47 40.5 48.4 39.4 49.1C38.8 49.8 38.1 50 37.3 50ZM36.1 45.4L35.7 47.1C35.5 47.7 35.9 48.1 36.7 48.3C37.5 48.5 38 48.3 38.4 47.9C39.2 47.3 39.6 46.6 39.7 45.4L39.9 43.5C39.9 43.1 39.9 42.9 39.9 42.5V42L40.5 41.8C40.7 41.6 41.5 41.2 42 39.3C42.2 39.1 45.5 33.5 49.9 30.5C50.9 29.9 50.7 29.3 50.7 29C49.9 26.9 44.4 24.2 41.3 24.6C40 24.7 39 25.2 38.1 26L37.1 27L36.5 25.8C36.3 25.2 35.7 24.8 35.2 24.6C33.9 24.2 31.7 24.8 30 26.1C28.7 27.1 27.7 28.4 27.7 29.9C27.5 31.2 28.1 32.8 29.2 33.9L31.9 36.8L28.3 35.3C27.1 34.9 26.4 34.7 25.8 35.1C25.2 35.5 25 36.3 25.2 37.2C25.4 39.3 26.9 41.2 29.4 42L30.7 42.4L29.7 43.4C29.5 43.6 29.1 44.2 29.1 44.6C29.1 45.2 29.5 45.6 30.1 46.1C31.3 47.1 33 47.1 34.5 46.1L36.1 45.4Z" fill="white"/>
<path d="M55.2999 44.1001C62.7999 45.3001 60.0999 35.5001 55.8999 31.6001C51.6999 27.7001 48.7999 29.5001 45.4999 33.3001L39.9999 41.6001C36.6999 45.4001 38.2999 47.4001 42.6999 45.4001C47.0999 43.5001 49.1999 43.1001 55.2999 44.1001Z" fill="#58BA61"/>
<path d="M39.7999 46.9001C38.5999 46.9001 38.0999 46.5001 37.6999 46.1001C37.2999 45.5001 36.6999 44.0001 39.1999 41.1001L44.7999 32.8001C46.4999 30.7001 48.6 28.8001 50.9 28.6001C52.6 28.4001 54.3999 29.4001 56.2999 30.9001C59.3999 33.8001 61.8999 39.5001 60.2999 42.6001C59.6999 43.6001 58.5999 45.3001 55.0999 44.7001C48.9999 43.9001 47.1999 44.1001 42.9999 46.0001C41.6999 46.8001 40.5999 46.9001 39.7999 46.9001ZM46.2999 33.9001L40.6999 42.2001C38.9999 44.1001 39.1999 45.0001 39.1999 45.0001C39.3999 45.2001 40.3999 45.4001 42.2999 44.4001C46.6999 42.5001 48.8 42.1001 55.4 43.1001C57.1 43.3001 58.3 42.9001 58.9 41.9001C60.1 39.6001 58.0999 34.8001 55.2999 32.1001C53.7999 30.8001 52.3999 30.2001 51.2999 30.2001C49.7999 30.4001 48.1999 31.4001 46.2999 33.9001Z" fill="white"/>
<path d="M36.1003 32.6999C34.9003 28.4999 37.3003 24.3999 41.3003 24.0999C45.3003 23.4999 54.6003 28.2999 50.3003 31.3999C46.1003 34.2999 42.8003 39.6999 42.8003 39.6999C41.3003 43.8999 39.2003 43.8999 37.8003 39.4999L36.1003 32.6999Z" fill="#8DC63F"/>
<path d="M40.6002 43.4999C40.4002 43.4999 40.4002 43.4999 40.6002 43.4999C39.6002 43.4999 38.3002 42.6999 37.3002 39.6999L35.4002 32.9999C34.6002 30.4999 35.0002 28.1999 36.4002 26.2999C37.6002 24.5999 39.3002 23.3999 41.4002 23.1999C43.1002 22.9999 45.4002 23.5999 47.7002 24.4999C48.9002 25.0999 51.5002 26.3999 52.3002 28.4999C52.7002 29.2999 52.9002 30.7999 51.0002 31.9999C47.2002 34.6999 44.3002 39.2999 43.9002 40.0999C42.7002 42.6999 41.3002 43.4999 40.6002 43.4999ZM37.1002 32.2999L39.0002 38.9999C39.6002 41.0999 40.3002 41.6999 40.5002 41.6999C40.9002 41.6999 41.5002 41.0999 42.2002 39.1999C42.4002 38.9999 45.5002 33.5999 49.9002 30.5999C50.9002 29.9999 50.7002 29.3999 50.5002 29.2999C49.7002 27.1999 44.4002 24.6999 41.5002 25.0999C40.0002 25.2999 38.6002 26.0999 37.7002 27.3999C36.7002 28.4999 36.5002 30.3999 37.1002 32.2999Z" fill="white"/>
<path d="M38.8 42.1C40.3 40.6 41.3 41.1 40.9 43.4L40.7 45.1C40.3 47.4 38.6 48.9 36.7 48.6C34.8 48.2 34.4 46.5 35.9 45L38.8 42.1Z" fill="#FCD55D"/>
<path d="M37.5 49.8001C37.3 49.8001 36.9 49.8001 36.7 49.6001C35.5 49.4001 34.8 48.6001 34.4 47.7001C34 46.7001 34.4 45.6001 35.6 44.4001L38.5 41.3001C39.7 40.0001 40.6 40.0001 41.2 40.3001C41.8 40.5001 42.4 41.3001 42.2 43.4001L41.8 45.3001C41.6 46.8001 40.8 48.2001 39.7 48.9001C38.8 49.4001 38.2 49.8001 37.5 49.8001ZM39.4 42.7001L36.5 45.8001C35.9 46.4001 35.7 47.0001 35.9 47.3001C36.1 47.7001 36.5 47.9001 36.9 48.1001C37.7 48.3001 38.2 48.1001 38.4 47.7001C39.2 47.1001 39.6 46.4001 39.7 45.2001L39.9 43.5001C39.9 42.7001 39.9 42.3001 39.9 42.2001C40 42.3001 39.8 42.3001 39.4 42.7001Z" fill="white"/>
<path d="M36.9001 39.5001C39.8001 38.3001 40.7001 39.7001 38.8001 42.6001L37.3001 44.7001C35.4001 47.4001 32.1001 48.3001 29.8001 46.6001C27.7001 44.9001 28.3001 42.6001 31.1001 41.6001L36.9001 39.5001Z" fill="#F0C219"/>
<path d="M32.5 48.3001C31.3 48.3001 30.4 47.9001 29.4 47.3001C28.2 46.3001 27.7 45.2001 27.9 44.0001C28.1 42.7001 29.2 41.5001 31.2 40.7001L36.8 38.6001C39.1 37.8001 40.1 38.2001 40.4 38.8001C41 39.4001 41.2 40.5001 39.6 42.8001L38.1 45.0001C36.9 46.7001 35.2 47.9001 33.5 48.1001C33.1 48.3001 32.9 48.3001 32.5 48.3001ZM37.3 40.4001L31.7 42.5001C30.5 42.9001 29.8 43.7001 29.6 44.4001C29.4 45.2001 30.2 45.7001 30.6 46.1001C31.4 46.7001 32.3 46.9001 33.3 46.7001C34.6 46.5001 36 45.5001 36.8 44.4001L38.3 42.3001C39.3 41.0001 39.3 40.4001 39.1 40.4001C39 40.0001 38.6 39.8001 37.3 40.4001Z" fill="white"/>
<path d="M36.4999 39.3C39.7999 41.4 39.1999 43.1 35.2999 43.1H32.1999C28.1999 43.1 24.8999 40.4 24.6999 37.3C24.4999 34 26.9999 33.1 30.2999 35.2L36.4999 39.3Z" fill="#D3DD29"/>
<path d="M32.3 44.0999C27.9 44.0999 24.2 41.1999 24 37.3999C23.8 35.6999 24.4 34.2999 25.5 33.7999C26.8 32.9999 28.8 33.1999 30.9 34.5999L37 38.5999C39.5 40.0999 39.7 41.4999 39.5 42.1999C39.3 42.9999 38.3 43.8999 35.3 43.8999L32.3 44.0999ZM27.3 34.9999C26.9 34.9999 26.7 34.9999 26.5 35.1999C25.7 35.5999 25.7 36.6999 25.7 37.2999C25.9 40.1999 28.8 42.2999 32.2 42.2999H35.3C37.2 42.2999 37.8 41.8999 37.8 41.6999C37.8 41.6999 37.6 40.8999 36.1 39.9999L30 35.9999C28.8 35.1999 27.9 34.9999 27.3 34.9999Z" fill="white"/>
<path d="M38.1002 27.4999C38.1002 22.8999 33.5002 23.2999 30.0002 25.7999C26.5002 28.2999 26.4002 32.4999 29.8002 35.3999L36.1002 40.7999C39.6002 43.6999 41.5002 42.2999 40.3002 38.0999C40.6002 37.8999 38.2002 32.1999 38.1002 27.4999Z" fill="#BED754"/>
<path d="M39.2001 42.8999C38.4001 42.8999 37.1001 42.4999 35.6001 41.1999L29.3001 35.7999C27.4001 34.2999 26.4001 32.1999 26.6001 29.9999C26.6001 27.8999 27.8001 25.9999 29.7001 24.5999C32.4001 22.6999 35.1001 22.0999 37.0001 23.0999C38.0001 23.4999 39.1001 24.5999 39.1001 27.0999C39.1001 31.4999 41.4001 37.2999 41.4001 37.2999V37.4999C42.2001 40.7999 41.4001 41.8999 40.4001 42.4999C40.2001 42.8999 39.8001 42.8999 39.2001 42.8999ZM34.8001 24.6999C33.6001 24.6999 31.9001 25.2999 30.6001 26.3999C29.3001 27.3999 28.3001 28.8999 28.3001 30.1999C28.3001 31.6999 29.1001 33.2999 30.4001 34.3999L36.7001 39.7999C38.2001 41.0999 39.2001 41.0999 39.4001 41.0999C39.6001 40.8999 40.0001 40.0999 39.6001 37.9999C39.4001 37.3999 37.3001 31.8999 37.3001 27.1999C37.3001 25.8999 36.9001 25.0999 36.1001 24.6999C35.7001 24.8999 35.4001 24.6999 34.8001 24.6999Z" fill="white"/>
</svg>
